<?xml version="1.0" encoding="UTF-8"?><svg id="Layer_2" xmlns="http://www.w3.org/2000/svg" viewBox="0 0 225 35"><defs><style>.cls-1{fill:#fff;}.cls-2{fill:red;opacity:.8;}</style></defs><g id="PR_Log"><g><rect class="cls-2" width="225" height="35" rx="2" ry="2"/><g><path class="cls-1" d="m20.63,22.39c-.76,0-1.46-.14-2.11-.41-.65-.27-1.21-.66-1.69-1.15-.48-.5-.85-1.07-1.11-1.73-.26-.65-.39-1.36-.39-2.11s.13-1.45.39-2.11.63-1.23,1.11-1.72c.48-.49,1.04-.87,1.69-1.15.64-.28,1.35-.42,2.11-.42.85,0,1.58.14,2.21.42.62.28,1.17.66,1.65,1.14l-1.17,1.17c-.31-.34-.69-.6-1.13-.79s-.96-.29-1.55-.29c-.52,0-1,.09-1.43.27s-.8.44-1.12.77-.56.73-.73,1.19c-.17.46-.26.97-.26,1.52s.08,1.06.26,1.52c.17.46.41.86.73,1.19s.69.59,1.12.77.91.27,1.43.27c.64,0,1.18-.1,1.63-.29.44-.19.82-.46,1.13-.8l1.17,1.17c-.48.49-1.04.88-1.69,1.15-.65.28-1.4.42-2.23.42Z"/><path class="cls-1" d="m25.88,22.24v-7.2h1.65v7.2h-1.65Zm1.65-4l-.57-.29c0-.91.2-1.65.61-2.21.4-.56,1.02-.85,1.84-.85.36,0,.69.07.98.2s.56.34.81.63l-1.08,1.11c-.13-.14-.28-.24-.44-.3-.16-.06-.34-.09-.56-.09-.46,0-.84.15-1.14.44-.3.29-.45.75-.45,1.37Z"/><path class="cls-1" d="m35.12,22.39c-.72,0-1.37-.16-1.94-.49-.58-.32-1.03-.77-1.36-1.34-.34-.57-.5-1.21-.5-1.92s.17-1.35.49-1.91c.33-.56.78-1.01,1.34-1.34s1.19-.5,1.88-.5,1.26.16,1.78.47.92.73,1.22,1.27c.29.54.44,1.15.44,1.84,0,.12,0,.24-.02.37s-.04.26-.07.41h-5.91v-1.35h5.06l-.62.54c-.02-.44-.1-.81-.25-1.11-.15-.3-.36-.53-.64-.69-.27-.16-.61-.24-1.01-.24-.42,0-.79.09-1.1.27s-.55.43-.72.76c-.17.33-.26.71-.26,1.16s.09.85.27,1.19c.18.34.44.6.77.79s.71.28,1.14.28c.37,0,.71-.06,1.03-.19s.58-.32.8-.57l1.05,1.06c-.35.41-.77.72-1.27.93-.5.21-1.03.31-1.59.31Z"/><path class="cls-1" d="m42.8,22.39c-.65,0-1.24-.17-1.76-.5-.52-.33-.94-.78-1.25-1.34s-.46-1.2-.46-1.9.15-1.35.46-1.91.72-1.01,1.25-1.35c.52-.33,1.11-.5,1.76-.5.55,0,1.04.12,1.46.35.42.24.76.56,1.01.97s.38.88.38,1.4v2.07c0,.52-.12.98-.37,1.4-.25.41-.58.73-1.01.97-.43.23-.92.35-1.47.35Zm.27-1.56c.61,0,1.1-.2,1.48-.61s.56-.94.56-1.58c0-.43-.09-.81-.26-1.14-.17-.33-.41-.59-.71-.77-.3-.18-.66-.28-1.07-.28s-.75.09-1.06.28c-.31.19-.55.44-.72.77-.17.33-.26.71-.26,1.14s.09.81.26,1.14.42.59.72.77c.3.19.66.28,1.06.28Zm1.94,1.41v-1.94l.29-1.75-.29-1.74v-1.77h1.65v7.2h-1.65Z"/><path class="cls-1" d="m47.86,16.54v-1.5h5.1v1.5h-5.1Zm1.72,5.7v-10.2h1.65v10.2h-1.65Z"/><path class="cls-1" d="m57.29,22.39c-.72,0-1.37-.16-1.94-.49-.58-.32-1.03-.77-1.37-1.34-.33-.57-.5-1.21-.5-1.92s.17-1.35.5-1.91c.33-.56.78-1.01,1.34-1.34.57-.33,1.19-.5,1.88-.5s1.26.16,1.78.47c.52.31.92.73,1.21,1.27s.44,1.15.44,1.84c0,.12,0,.24-.02.37-.01.12-.04.26-.07.41h-5.91v-1.35h5.05l-.62.54c-.02-.44-.1-.81-.25-1.11-.15-.3-.36-.53-.64-.69-.28-.16-.61-.24-1.01-.24s-.79.09-1.09.27-.55.43-.72.76c-.17.33-.25.71-.25,1.16s.09.85.27,1.19.44.6.77.79c.33.19.71.28,1.14.28.37,0,.71-.06,1.03-.19s.58-.32.8-.57l1.05,1.06c-.35.41-.78.72-1.28.93s-1.03.31-1.59.31Z"/><path class="cls-1" d="m65.18,22.24v-10.5h1.2l4.37,7.19h-.78l4.37-7.19h1.2v10.5h-1.73v-7.47l.39.1-3.24,5.33h-1.2l-3.24-5.33.39-.1v7.47h-1.73Z"/><path class="cls-1" d="m80.6,22.39c-.65,0-1.24-.17-1.76-.5-.53-.33-.94-.78-1.25-1.34-.31-.56-.46-1.2-.46-1.9s.15-1.35.46-1.91c.3-.56.72-1.01,1.25-1.35.52-.33,1.11-.5,1.76-.5.55,0,1.04.12,1.46.35.42.24.76.56,1.01.97s.38.88.38,1.4v2.07c0,.52-.12.98-.37,1.4s-.58.73-1.01.97c-.43.23-.92.35-1.47.35Zm.27-1.56c.61,0,1.1-.2,1.48-.61s.56-.94.56-1.58c0-.43-.08-.81-.25-1.14-.17-.33-.41-.59-.71-.77-.3-.18-.66-.28-1.07-.28s-.75.09-1.06.28c-.31.19-.54.44-.72.77-.18.33-.26.71-.26,1.14s.09.81.26,1.14c.17.33.41.59.72.77.3.19.66.28,1.06.28Zm1.93,1.41v-1.94l.29-1.75-.29-1.74v-1.77h1.65v7.2h-1.65Z"/><path class="cls-1" d="m85.66,16.54v-1.5h5.1v1.5h-5.1Zm1.72,5.7v-10.2h1.65v10.2h-1.65Z"/><path class="cls-1" d="m95.09,22.39c-.72,0-1.37-.16-1.94-.49-.58-.32-1.03-.77-1.37-1.34-.33-.57-.5-1.21-.5-1.92s.17-1.35.5-1.91c.33-.56.78-1.01,1.34-1.34.57-.33,1.19-.5,1.88-.5s1.26.16,1.78.47c.52.31.92.73,1.21,1.27s.44,1.15.44,1.84c0,.12,0,.24-.02.37-.01.12-.04.26-.07.41h-5.91v-1.35h5.05l-.62.54c-.02-.44-.1-.81-.25-1.11-.15-.3-.36-.53-.64-.69-.28-.16-.61-.24-1.01-.24s-.79.09-1.09.27-.55.43-.72.76c-.17.33-.25.71-.25,1.16s.09.85.27,1.19.44.6.77.79c.33.19.71.28,1.14.28.37,0,.71-.06,1.03-.19s.58-.32.8-.57l1.05,1.06c-.35.41-.78.72-1.28.93s-1.03.31-1.59.31Z"/><path class="cls-1" d="m99.76,22.24v-7.2h1.65v7.2h-1.65Zm1.65-4l-.57-.29c0-.91.2-1.65.61-2.21s1.02-.85,1.84-.85c.36,0,.68.07.97.2s.56.34.81.63l-1.08,1.11c-.13-.14-.27-.24-.43-.3s-.34-.09-.55-.09c-.46,0-.84.15-1.14.44-.3.29-.45.75-.45,1.37Z"/><path class="cls-1" d="m106.7,13.72c-.28,0-.51-.09-.7-.29-.19-.19-.28-.42-.28-.7s.09-.52.28-.71c.18-.19.42-.29.7-.29s.53.1.71.29.27.42.27.71-.09.52-.27.7c-.18.19-.42.29-.71.29Zm-.83,8.52v-7.2h1.65v7.2h-1.65Z"/><path class="cls-1" d="m112.39,22.39c-.65,0-1.24-.17-1.76-.5-.53-.33-.94-.78-1.25-1.34-.31-.56-.46-1.2-.46-1.9s.15-1.35.46-1.91c.3-.56.72-1.01,1.25-1.35.52-.33,1.11-.5,1.76-.5.55,0,1.04.12,1.46.35.42.24.76.56,1.01.97s.38.88.38,1.4v2.07c0,.52-.12.98-.37,1.4s-.58.73-1.01.97c-.43.23-.92.35-1.47.35Zm.27-1.56c.61,0,1.1-.2,1.48-.61s.56-.94.56-1.58c0-.43-.08-.81-.25-1.14-.17-.33-.41-.59-.71-.77-.3-.18-.66-.28-1.07-.28s-.75.09-1.06.28c-.31.19-.54.44-.72.77-.18.33-.26.71-.26,1.14s.09.81.26,1.14c.17.33.41.59.72.77.3.19.66.28,1.06.28Zm1.93,1.41v-1.94l.29-1.75-.29-1.74v-1.77h1.65v7.2h-1.65Z"/><path class="cls-1" d="m118.07,22.24v-10.8h1.65v10.8h-1.65Z"/><path class="cls-1" d="m124.78,22.24v-10.5h1.73v10.5h-1.73Zm1.19-4.46v-1.42h2.66c.53,0,.94-.14,1.24-.41s.44-.66.44-1.15c0-.44-.15-.81-.44-1.11-.29-.3-.7-.45-1.23-.45h-2.67v-1.5h2.75c.66,0,1.24.13,1.74.4.5.27.89.62,1.16,1.08.27.46.41.97.41,1.55,0,.61-.14,1.14-.41,1.59-.28.45-.66.8-1.16,1.05s-1.08.38-1.74.38h-2.75Zm4.58,4.46l-3.68-4.56,1.61-.58,4.25,5.15h-2.17Z"/><path class="cls-1" d="m136.9,22.39c-.72,0-1.37-.16-1.94-.49-.58-.32-1.03-.77-1.37-1.34-.33-.57-.5-1.21-.5-1.92s.17-1.35.5-1.91c.33-.56.78-1.01,1.34-1.34.57-.33,1.19-.5,1.88-.5s1.26.16,1.78.47c.52.31.92.73,1.21,1.27s.44,1.15.44,1.84c0,.12,0,.24-.02.37-.01.12-.04.26-.07.41h-5.91v-1.35h5.05l-.62.54c-.02-.44-.1-.81-.25-1.11-.15-.3-.36-.53-.64-.69-.28-.16-.61-.24-1.01-.24s-.79.09-1.09.27-.55.43-.72.76c-.17.33-.25.71-.25,1.16s.09.85.27,1.19.44.6.77.79c.33.19.71.28,1.14.28.37,0,.71-.06,1.03-.19s.58-.32.8-.57l1.05,1.06c-.35.41-.78.72-1.28.93s-1.03.31-1.59.31Z"/><path class="cls-1" d="m141.56,22.24v-10.8h1.65v10.8h-1.65Z"/><path class="cls-1" d="m148.39,22.39c-.72,0-1.37-.16-1.94-.49-.58-.32-1.03-.77-1.37-1.34-.33-.57-.5-1.21-.5-1.92s.17-1.35.5-1.91c.33-.56.78-1.01,1.34-1.34.57-.33,1.19-.5,1.88-.5s1.26.16,1.78.47c.52.31.92.73,1.21,1.27s.44,1.15.44,1.84c0,.12,0,.24-.02.37-.01.12-.04.26-.07.41h-5.91v-1.35h5.05l-.62.54c-.02-.44-.1-.81-.25-1.11-.15-.3-.36-.53-.64-.69-.28-.16-.61-.24-1.01-.24s-.79.09-1.09.27-.55.43-.72.76c-.17.33-.25.71-.25,1.16s.09.85.27,1.19.44.6.77.79c.33.19.71.28,1.14.28.37,0,.71-.06,1.03-.19s.58-.32.8-.57l1.05,1.06c-.35.41-.78.72-1.28.93s-1.03.31-1.59.31Z"/><path class="cls-1" d="m156.07,22.39c-.65,0-1.24-.17-1.76-.5-.53-.33-.94-.78-1.25-1.34-.31-.56-.46-1.2-.46-1.9s.15-1.35.46-1.91c.3-.56.72-1.01,1.25-1.35.52-.33,1.11-.5,1.76-.5.55,0,1.04.12,1.46.35.42.24.76.56,1.01.97s.38.88.38,1.4v2.07c0,.52-.12.98-.37,1.4s-.58.73-1.01.97c-.43.23-.92.35-1.47.35Zm.27-1.56c.61,0,1.1-.2,1.48-.61s.56-.94.56-1.58c0-.43-.08-.81-.25-1.14-.17-.33-.41-.59-.71-.77-.3-.18-.66-.28-1.07-.28s-.75.09-1.06.28c-.31.19-.54.44-.72.77-.18.33-.26.71-.26,1.14s.09.81.26,1.14c.17.33.41.59.72.77.3.19.66.28,1.06.28Zm1.93,1.41v-1.94l.29-1.75-.29-1.74v-1.77h1.65v7.2h-1.65Z"/><path class="cls-1" d="m164.11,22.39c-.4,0-.79-.05-1.15-.16-.37-.1-.71-.26-1.02-.45-.31-.19-.58-.43-.81-.71l1.05-1.05c.25.29.54.51.86.65s.69.22,1.1.22c.37,0,.65-.05.84-.17.19-.11.29-.27.29-.48s-.09-.39-.27-.51c-.18-.12-.41-.22-.7-.31-.28-.08-.58-.17-.9-.26-.32-.09-.62-.21-.9-.37s-.52-.37-.7-.64-.27-.62-.27-1.05c0-.46.11-.85.32-1.19.21-.33.52-.58.92-.77.39-.18.87-.27,1.42-.27.58,0,1.09.1,1.54.31.44.21.82.51,1.12.92l-1.05,1.05c-.21-.26-.45-.46-.72-.58-.27-.13-.58-.2-.93-.2-.33,0-.58.05-.76.15-.18.1-.27.25-.27.44,0,.2.09.35.27.47.18.11.41.21.7.28.29.08.58.17.9.26.31.1.61.23.9.39s.52.38.7.66c.18.28.27.63.27,1.07,0,.7-.25,1.25-.74,1.67-.49.41-1.15.61-2,.61Z"/><path class="cls-1" d="m171.55,22.39c-.72,0-1.37-.16-1.94-.49-.58-.32-1.03-.77-1.37-1.34-.33-.57-.5-1.21-.5-1.92s.17-1.35.5-1.91c.33-.56.78-1.01,1.34-1.34.57-.33,1.19-.5,1.88-.5s1.26.16,1.78.47c.52.31.92.73,1.21,1.27s.44,1.15.44,1.84c0,.12,0,.24-.02.37-.01.12-.04.26-.07.41h-5.91v-1.35h5.05l-.62.54c-.02-.44-.1-.81-.25-1.11-.15-.3-.36-.53-.64-.69-.28-.16-.61-.24-1.01-.24s-.79.09-1.09.27-.55.43-.72.76c-.17.33-.25.71-.25,1.16s.09.85.27,1.19.44.6.77.79c.33.19.71.28,1.14.28.37,0,.71-.06,1.03-.19s.58-.32.8-.57l1.05,1.06c-.35.41-.78.72-1.28.93s-1.03.31-1.59.31Z"/><path class="cls-1" d="m179.44,22.24v-10.5h1.2l.53,1.98v8.52h-1.73Zm7.28,0l-6.29-8.21.21-2.29,6.29,8.21-.21,2.29Zm0,0l-.53-1.85v-8.65h1.73v10.5h-1.2Z"/><path class="cls-1" d="m193.27,22.39c-.7,0-1.33-.17-1.91-.5-.57-.33-1.02-.79-1.36-1.36s-.5-1.21-.5-1.91.17-1.33.5-1.89.79-1.01,1.36-1.34c.57-.33,1.21-.5,1.91-.5s1.35.17,1.92.5c.57.33,1.02.78,1.36,1.34.33.57.5,1.2.5,1.9s-.17,1.34-.5,1.91-.79,1.02-1.36,1.36c-.57.33-1.21.5-1.92.5Zm0-1.59c.41,0,.77-.09,1.09-.28.31-.19.56-.44.73-.77.17-.33.26-.7.26-1.12s-.09-.79-.27-1.11c-.18-.32-.43-.57-.74-.76s-.67-.28-1.08-.28-.76.09-1.07.28c-.32.19-.56.44-.74.76-.17.32-.26.69-.26,1.11s.09.8.26,1.12c.17.33.42.59.74.77.31.19.67.28,1.07.28Z"/><path class="cls-1" d="m197.57,16.54v-1.5h5.1v1.5h-5.1Zm1.72,5.7v-10.2h1.65v10.2h-1.65Z"/><path class="cls-1" d="m207.01,22.39c-.72,0-1.37-.16-1.94-.49-.58-.32-1.03-.77-1.37-1.34-.33-.57-.5-1.21-.5-1.92s.17-1.35.5-1.91c.33-.56.78-1.01,1.34-1.34.57-.33,1.19-.5,1.88-.5s1.26.16,1.78.47c.52.31.92.73,1.21,1.27s.44,1.15.44,1.84c0,.12,0,.24-.02.37-.01.12-.04.26-.07.41h-5.91v-1.35h5.05l-.62.54c-.02-.44-.1-.81-.25-1.11-.15-.3-.36-.53-.64-.69-.28-.16-.61-.24-1.01-.24s-.79.09-1.09.27-.55.43-.72.76c-.17.33-.25.71-.25,1.16s.09.85.27,1.19.44.6.77.79c.33.19.71.28,1.14.28.37,0,.71-.06,1.03-.19s.58-.32.8-.57l1.05,1.06c-.35.41-.78.72-1.28.93s-1.03.31-1.59.31Z"/></g></g></g></svg>