<?xml version="1.0" encoding="UTF-8"?><svg id="Layer_2" xmlns="http://www.w3.org/2000/svg" viewBox="0 0 140 30"><defs><style>.cls-1{fill:#fff;}.cls-2{fill:red;opacity:.8;}</style></defs><g id="PR_Log"><g><rect class="cls-2" width="140" height="30" rx="2" ry="2"/><g><path class="cls-1" d="m40.16,20.06v-11.2h1.84v11.2h-1.84Zm1.26-4.75v-1.52h2.83c.57,0,1.01-.15,1.32-.44s.47-.7.47-1.22c0-.47-.15-.86-.46-1.18-.31-.32-.75-.48-1.31-.48h-2.85v-1.6h2.93c.7,0,1.32.14,1.86.42.53.28.95.67,1.24,1.15s.44,1.04.44,1.66c0,.65-.15,1.22-.44,1.7-.29.48-.71.85-1.24,1.12-.53.27-1.15.4-1.86.4h-2.93Zm4.88,4.75l-3.92-4.86,1.71-.62,4.53,5.49h-2.32Z"/><path class="cls-1" d="m53.09,20.22c-.77,0-1.46-.17-2.07-.52-.61-.35-1.1-.82-1.46-1.43-.36-.61-.54-1.29-.54-2.05s.18-1.44.53-2.04.83-1.08,1.43-1.43c.6-.35,1.27-.53,2.01-.53s1.35.17,1.9.5c.55.33.98.78,1.3,1.36.31.58.47,1.23.47,1.97,0,.13,0,.26-.02.39-.02.13-.04.28-.07.44h-6.3v-1.44h5.39l-.66.58c-.02-.47-.11-.86-.27-1.18s-.39-.56-.68-.74c-.29-.17-.65-.26-1.08-.26-.45,0-.84.1-1.17.29-.33.19-.59.46-.77.81-.18.35-.27.76-.27,1.24s.1.9.29,1.26.46.64.82.84.76.3,1.22.3c.39,0,.76-.07,1.1-.21s.62-.34.86-.61l1.12,1.14c-.37.44-.83.77-1.36.99-.53.22-1.1.34-1.7.34Z"/><path class="cls-1" d="m57.3,23.42c-.54,0-.99-.09-1.34-.26-.35-.17-.66-.42-.95-.75l1.14-1.14c.13.17.27.3.43.38.16.08.36.12.59.12.29,0,.54-.09.74-.26s.31-.43.31-.78v-8.35h1.76v8.34c0,.59-.13,1.08-.38,1.48-.25.4-.58.7-.98.91-.41.21-.85.31-1.33.31Zm1.84-12.45c-.3,0-.55-.1-.74-.3-.2-.2-.3-.45-.3-.75s.1-.55.3-.75c.2-.2.44-.3.74-.3s.56.1.75.3c.19.2.29.45.29.75s-.1.55-.29.75c-.19.2-.44.3-.75.3Z"/><path class="cls-1" d="m65.5,20.22c-.77,0-1.46-.17-2.07-.52-.61-.35-1.1-.82-1.46-1.43-.36-.61-.54-1.29-.54-2.05s.18-1.44.53-2.04.83-1.08,1.43-1.43c.6-.35,1.27-.53,2.01-.53s1.35.17,1.9.5c.55.33.98.78,1.3,1.36.31.58.47,1.23.47,1.97,0,.13,0,.26-.02.39-.02.13-.04.28-.07.44h-6.3v-1.44h5.39l-.66.58c-.02-.47-.11-.86-.27-1.18s-.39-.56-.68-.74c-.29-.17-.65-.26-1.08-.26-.45,0-.84.1-1.17.29-.33.19-.59.46-.77.81-.18.35-.27.76-.27,1.24s.1.9.29,1.26.46.64.82.84.76.3,1.22.3c.39,0,.76-.07,1.1-.21s.62-.34.86-.61l1.12,1.14c-.37.44-.83.77-1.36.99-.53.22-1.1.34-1.7.34Z"/><path class="cls-1" d="m74.02,20.22c-.76,0-1.44-.18-2.06-.53-.61-.35-1.1-.83-1.45-1.44-.35-.61-.53-1.29-.53-2.03s.18-1.44.53-2.04.83-1.08,1.45-1.43c.61-.35,1.3-.53,2.06-.53.6,0,1.15.11,1.67.34.52.23.96.56,1.32.98l-1.15,1.17c-.22-.27-.49-.47-.81-.6-.31-.13-.66-.2-1.03-.2-.44,0-.82.1-1.16.3s-.6.47-.78.81c-.19.34-.28.74-.28,1.2s.09.85.28,1.19c.19.35.45.62.78.82s.72.3,1.16.3c.37,0,.72-.07,1.03-.2.31-.13.58-.33.81-.6l1.15,1.17c-.36.43-.8.75-1.32.98-.52.23-1.07.34-1.67.34Z"/><path class="cls-1" d="m77.47,13.98v-1.6h5.44v1.6h-5.44Zm1.84,6.08v-10.88h1.76v10.88h-1.76Z"/><path class="cls-1" d="m87.54,20.22c-.77,0-1.46-.17-2.07-.52-.61-.35-1.1-.82-1.46-1.43-.36-.61-.54-1.29-.54-2.05s.18-1.44.53-2.04.83-1.08,1.43-1.43c.6-.35,1.27-.53,2.01-.53s1.35.17,1.9.5c.55.33.98.78,1.3,1.36.31.58.47,1.23.47,1.97,0,.13,0,.26-.02.39-.02.13-.04.28-.07.44h-6.3v-1.44h5.39l-.66.58c-.02-.47-.11-.86-.27-1.18s-.39-.56-.68-.74c-.29-.17-.65-.26-1.08-.26-.45,0-.84.1-1.17.29-.33.19-.59.46-.77.81-.18.35-.27.76-.27,1.24s.1.9.29,1.26.46.64.82.84.76.3,1.22.3c.39,0,.76-.07,1.1-.21s.62-.34.86-.61l1.12,1.14c-.37.44-.83.77-1.36.99-.53.22-1.1.34-1.7.34Z"/><path class="cls-1" d="m95.73,20.22c-.69,0-1.32-.18-1.88-.53-.56-.35-1-.83-1.33-1.43s-.49-1.28-.49-2.02.16-1.44.49-2.04.77-1.08,1.33-1.44,1.19-.54,1.88-.54c.59,0,1.11.12,1.56.38.45.25.81.59,1.08,1.03s.4.93.4,1.49v2.21c0,.55-.13,1.05-.39,1.49s-.62.78-1.08,1.03c-.46.25-.98.38-1.57.38Zm.29-1.66c.44,0,.82-.1,1.14-.3.33-.2.58-.47.76-.82.18-.35.27-.76.27-1.22s-.09-.86-.27-1.22c-.18-.35-.43-.63-.76-.82-.33-.2-.7-.3-1.13-.3s-.82.1-1.14.3c-.33.2-.58.47-.77.82-.19.35-.28.76-.28,1.22s.09.86.28,1.22.44.63.77.82c.33.2.7.3,1.13.3Zm3.82,1.5h-1.76v-2.06l.3-1.87-.3-1.86v-5.73h1.76v11.52Z"/></g></g></g></svg>