<?xml version="1.0" encoding="UTF-8"?><svg id="Layer_2" xmlns="http://www.w3.org/2000/svg" viewBox="0 0 140 30"><defs><style>.cls-1{fill:#fff;}.cls-2{fill:#fa9600;opacity:.8;}</style></defs><g id="PR_Log"><g><rect class="cls-2" width="140" height="30" rx="2" ry="2"/><g><path class="cls-1" d="m7.36,20.06v-11.2h1.84v11.2h-1.84Zm1.26-4.22v-1.6h2.8c.38,0,.72-.08,1.02-.23.29-.16.53-.37.7-.66.17-.28.26-.62.26-1s-.09-.72-.26-1c-.17-.28-.4-.5-.7-.66-.29-.15-.63-.23-1.02-.23h-2.8v-1.6h2.9c.7,0,1.34.14,1.9.43.56.29,1,.69,1.33,1.22.33.52.49,1.14.49,1.84s-.16,1.32-.49,1.84c-.33.52-.77.93-1.33,1.22s-1.19.43-1.9.43h-2.9Z"/><path class="cls-1" d="m19.62,20.22c-.69,0-1.32-.18-1.88-.53-.56-.35-1-.83-1.33-1.43s-.49-1.28-.49-2.02.16-1.44.49-2.04.77-1.08,1.33-1.44,1.19-.54,1.88-.54c.59,0,1.11.12,1.56.38.45.25.81.59,1.08,1.03s.4.93.4,1.49v2.21c0,.55-.13,1.05-.39,1.49s-.62.78-1.08,1.03c-.46.25-.98.38-1.57.38Zm.29-1.66c.65,0,1.18-.22,1.58-.66.4-.44.6-1,.6-1.68,0-.46-.09-.86-.27-1.22-.18-.35-.43-.63-.76-.82-.33-.2-.71-.3-1.14-.3s-.8.1-1.13.3c-.33.2-.58.47-.77.82-.19.35-.28.76-.28,1.22s.09.86.28,1.22.44.63.77.82c.33.2.7.3,1.13.3Zm2.06,1.5v-2.06l.3-1.87-.3-1.86v-1.89h1.76v7.68h-1.76Z"/><path class="cls-1" d="m25.68,20.06v-7.68h1.76v7.68h-1.76Zm1.76-4.27l-.61-.3c0-.97.22-1.76.65-2.36s1.08-.9,1.96-.9c.38,0,.73.07,1.04.21s.6.36.86.67l-1.15,1.18c-.14-.15-.29-.26-.46-.32-.17-.06-.37-.1-.59-.1-.49,0-.9.16-1.22.46-.32.31-.48.79-.48,1.46Z"/><path class="cls-1" d="m31.55,13.98v-1.6h5.44v1.6h-5.44Zm1.84,6.08v-10.88h1.76v10.88h-1.76Z"/><path class="cls-1" d="m39.17,10.97c-.3,0-.55-.1-.74-.3-.2-.2-.3-.45-.3-.75s.1-.55.3-.75c.2-.2.45-.3.74-.3s.56.1.75.3c.19.2.29.45.29.75s-.1.55-.29.75c-.19.2-.44.3-.75.3Zm-.88,9.09v-7.68h1.76v7.68h-1.76Z"/><path class="cls-1" d="m45.23,20.22c-.69,0-1.32-.18-1.88-.53-.56-.35-1-.83-1.33-1.43s-.49-1.28-.49-2.02.16-1.44.49-2.04.77-1.08,1.33-1.44c.56-.36,1.19-.54,1.88-.54.59,0,1.11.12,1.56.38.45.25.81.59,1.08,1.03s.4.93.4,1.49v2.21c0,.55-.13,1.05-.39,1.49-.26.44-.62.78-1.08,1.03-.46.25-.98.38-1.57.38Zm.29-1.66c.65,0,1.18-.22,1.58-.66s.6-1,.6-1.68c0-.46-.09-.86-.27-1.22-.18-.35-.43-.63-.76-.82-.33-.2-.71-.3-1.14-.3s-.8.1-1.13.3-.58.47-.77.82c-.19.35-.28.76-.28,1.22s.09.86.28,1.22.44.63.77.82.7.3,1.13.3Zm2.06,1.5v-2.06l.3-1.87-.3-1.86v-1.89h1.76v7.68h-1.76Z"/><path class="cls-1" d="m51.3,20.06v-11.52h1.76v11.52h-1.76Z"/><path class="cls-1" d="m55.01,20.06v-11.52h1.76v11.52h-1.76Z"/><path class="cls-1" d="m61.2,20.14l-3.28-7.76h1.94l2.24,5.7h-.56l2.37-5.7h1.95l-3.57,7.76h-1.09Zm-2.29,3.12l2.38-4.91.99,1.79-1.42,3.12h-1.95Z"/><path class="cls-1" d="m70.45,20.06v-11.2h1.84v11.2h-1.84Zm1.26-4.75v-1.52h2.83c.57,0,1.01-.15,1.32-.44s.47-.7.47-1.22c0-.47-.15-.86-.46-1.18s-.75-.48-1.31-.48h-2.85v-1.6h2.93c.7,0,1.32.14,1.86.42.53.28.95.67,1.24,1.15.29.49.44,1.04.44,1.66,0,.65-.15,1.22-.44,1.7-.29.48-.71.85-1.24,1.12-.53.27-1.15.4-1.86.4h-2.93Zm4.88,4.75l-3.92-4.86,1.71-.62,4.53,5.49h-2.32Z"/><path class="cls-1" d="m83.38,20.22c-.77,0-1.46-.17-2.07-.52-.61-.35-1.1-.82-1.46-1.43-.36-.61-.54-1.29-.54-2.05s.18-1.44.53-2.04c.35-.6.83-1.08,1.43-1.43.6-.35,1.27-.53,2.01-.53s1.35.17,1.9.5c.55.33.98.78,1.3,1.36.31.58.47,1.23.47,1.97,0,.13,0,.26-.02.39-.02.13-.04.28-.07.44h-6.3v-1.44h5.39l-.66.58c-.02-.47-.11-.86-.27-1.18-.16-.32-.39-.56-.68-.74s-.65-.26-1.08-.26c-.45,0-.84.1-1.17.29-.33.19-.59.46-.77.81-.18.35-.27.76-.27,1.24s.1.9.29,1.26c.19.36.46.64.82.84.35.2.76.3,1.22.3.39,0,.76-.07,1.1-.21s.62-.34.86-.61l1.12,1.14c-.37.44-.83.77-1.36.99-.53.22-1.1.34-1.7.34Z"/><path class="cls-1" d="m88.35,20.06v-11.52h1.76v11.52h-1.76Z"/><path class="cls-1" d="m95.63,20.22c-.77,0-1.46-.17-2.07-.52-.61-.35-1.1-.82-1.46-1.43-.36-.61-.54-1.29-.54-2.05s.18-1.44.53-2.04c.35-.6.83-1.08,1.43-1.43.6-.35,1.27-.53,2.01-.53s1.35.17,1.9.5c.55.33.98.78,1.3,1.36.31.58.47,1.23.47,1.97,0,.13,0,.26-.02.39-.02.13-.04.28-.07.44h-6.3v-1.44h5.39l-.66.58c-.02-.47-.11-.86-.27-1.18-.16-.32-.39-.56-.68-.74s-.65-.26-1.08-.26c-.45,0-.84.1-1.17.29-.33.19-.59.46-.77.81-.18.35-.27.76-.27,1.24s.1.9.29,1.26c.19.36.46.64.82.84.35.2.76.3,1.22.3.39,0,.76-.07,1.1-.21s.62-.34.86-.61l1.12,1.14c-.37.44-.83.77-1.36.99-.53.22-1.1.34-1.7.34Z"/><path class="cls-1" d="m103.82,20.22c-.69,0-1.32-.18-1.88-.53-.56-.35-1-.83-1.33-1.43s-.49-1.28-.49-2.02.16-1.44.49-2.04.77-1.08,1.33-1.44c.56-.36,1.19-.54,1.88-.54.59,0,1.11.12,1.56.38s.81.59,1.08,1.03.4.93.4,1.49v2.21c0,.55-.13,1.05-.39,1.49-.26.44-.62.78-1.08,1.03-.46.25-.98.38-1.57.38Zm.29-1.66c.65,0,1.18-.22,1.58-.66.4-.44.6-1,.6-1.68,0-.46-.09-.86-.27-1.22-.18-.35-.43-.63-.76-.82s-.71-.3-1.14-.3-.8.1-1.13.3c-.33.2-.58.47-.77.82-.19.35-.28.76-.28,1.22s.09.86.28,1.22.44.63.77.82c.33.2.7.3,1.13.3Zm2.06,1.5v-2.06l.3-1.87-.3-1.86v-1.89h1.76v7.68h-1.76Z"/><path class="cls-1" d="m112.4,20.22c-.43,0-.84-.06-1.23-.17-.39-.11-.76-.27-1.09-.48-.33-.21-.62-.46-.86-.76l1.12-1.12c.27.31.57.54.92.7.35.15.74.23,1.18.23.39,0,.69-.06.9-.18.2-.12.3-.29.3-.51s-.1-.42-.29-.54c-.19-.13-.44-.24-.74-.33-.3-.09-.62-.18-.96-.28-.34-.1-.66-.23-.96-.39-.3-.17-.55-.39-.74-.68-.19-.29-.29-.66-.29-1.12,0-.49.11-.91.34-1.26.23-.35.55-.62.98-.82.42-.19.92-.29,1.51-.29.62,0,1.17.11,1.64.33s.87.55,1.19.98l-1.12,1.12c-.22-.28-.48-.49-.77-.62-.29-.14-.62-.21-.99-.21-.35,0-.62.05-.82.16-.19.11-.29.26-.29.46,0,.21.1.38.29.5.19.12.44.22.74.3.3.09.62.18.96.28s.66.24.96.42.55.41.74.7c.19.29.29.67.29,1.14,0,.75-.26,1.34-.78,1.78s-1.23.66-2.13.66Z"/><path class="cls-1" d="m120.34,20.22c-.77,0-1.46-.17-2.07-.52-.61-.35-1.1-.82-1.46-1.43-.36-.61-.54-1.29-.54-2.05s.18-1.44.53-2.04c.35-.6.83-1.08,1.43-1.43.6-.35,1.27-.53,2.01-.53s1.35.17,1.9.5c.55.33.98.78,1.3,1.36.31.58.47,1.23.47,1.97,0,.13,0,.26-.02.39-.02.13-.04.28-.07.44h-6.3v-1.44h5.39l-.66.58c-.02-.47-.11-.86-.27-1.18-.16-.32-.39-.56-.68-.74-.29-.17-.65-.26-1.08-.26-.45,0-.84.1-1.17.29-.33.19-.59.46-.77.81-.18.35-.27.76-.27,1.24s.1.9.29,1.26.46.64.82.84c.35.2.76.3,1.22.3.39,0,.76-.07,1.1-.21s.62-.34.86-.61l1.12,1.14c-.37.44-.83.77-1.36.99-.53.22-1.1.34-1.7.34Z"/><path class="cls-1" d="m128.53,20.22c-.69,0-1.32-.18-1.88-.53-.56-.35-1-.83-1.33-1.43-.33-.6-.49-1.28-.49-2.02s.16-1.44.49-2.04c.33-.6.77-1.08,1.33-1.44.56-.36,1.19-.54,1.88-.54.59,0,1.11.12,1.56.38s.81.59,1.08,1.03.4.93.4,1.49v2.21c0,.55-.13,1.05-.39,1.49s-.62.78-1.08,1.03c-.46.25-.98.38-1.57.38Zm.29-1.66c.44,0,.82-.1,1.14-.3s.58-.47.76-.82.27-.76.27-1.22-.09-.86-.27-1.22c-.18-.35-.43-.63-.76-.82s-.7-.3-1.13-.3-.82.1-1.14.3c-.33.2-.58.47-.77.82-.19.35-.28.76-.28,1.22s.09.86.28,1.22.44.63.77.82c.33.2.7.3,1.13.3Zm3.82,1.5h-1.76v-2.06l.3-1.87-.3-1.86v-5.73h1.76v11.52Z"/></g></g></g></svg>