<?xml version="1.0" encoding="UTF-8"?><svg id="Layer_2" xmlns="http://www.w3.org/2000/svg" viewBox="0 0 150 30"><defs><style>.cls-1{fill:#fff;}.cls-2{fill:red;opacity:.8;}.cls-3{fill:none;stroke:#fff;stroke-miterlimit:10;stroke-width:1.5px;}</style></defs><g id="PR_Log"><rect class="cls-2" width="150" height="30" rx="2" ry="2"/><g><g><path class="cls-1" d="M49.06,20.22c-.77,0-1.49-.15-2.18-.45s-1.28-.71-1.79-1.24c-.51-.53-.92-1.14-1.21-1.84-.29-.7-.44-1.45-.44-2.25s.15-1.55,.44-2.24c.29-.69,.7-1.3,1.22-1.83,.52-.53,1.12-.94,1.82-1.23,.7-.29,1.45-.44,2.26-.44,.89,0,1.71,.17,2.46,.51,.76,.34,1.39,.83,1.9,1.46l-1.25,1.25c-.33-.47-.77-.83-1.33-1.08-.55-.25-1.15-.38-1.79-.38-.77,0-1.44,.17-2.02,.5-.58,.34-1.03,.8-1.35,1.4-.32,.6-.48,1.29-.48,2.08s.16,1.49,.49,2.09c.33,.6,.76,1.08,1.32,1.42,.55,.34,1.18,.51,1.89,.51,.75,0,1.39-.14,1.93-.41,.54-.27,.95-.68,1.24-1.22,.29-.54,.43-1.2,.43-1.99l1.15,.83h-4.78v-1.68h5.54v.26c0,1.33-.24,2.44-.71,3.33-.48,.89-1.12,1.55-1.94,1.98s-1.76,.66-2.82,.66Z"/><path class="cls-1" d="M59.69,20.22c-.77,0-1.46-.17-2.07-.52-.61-.35-1.1-.82-1.46-1.43s-.54-1.29-.54-2.05,.18-1.44,.53-2.04c.35-.6,.83-1.08,1.43-1.43,.6-.35,1.27-.53,2.01-.53s1.35,.17,1.9,.5c.55,.33,.98,.78,1.3,1.36,.31,.58,.47,1.23,.47,1.97,0,.13,0,.26-.02,.39-.02,.13-.04,.28-.07,.44h-6.3v-1.44h5.39l-.66,.58c-.02-.47-.11-.86-.27-1.18-.16-.32-.39-.56-.68-.74-.29-.17-.65-.26-1.08-.26-.45,0-.84,.1-1.17,.29-.33,.19-.59,.46-.77,.81s-.27,.76-.27,1.24,.1,.9,.29,1.26c.19,.36,.46,.64,.82,.84,.35,.2,.76,.3,1.22,.3,.39,0,.76-.07,1.1-.21s.62-.34,.86-.61l1.12,1.14c-.37,.44-.83,.77-1.36,.99-.53,.22-1.1,.34-1.7,.34Z"/><path class="cls-1" d="M64.66,20.06v-7.68h1.76v7.68h-1.76Zm5.26,0v-4.43c0-.51-.16-.93-.49-1.26-.33-.33-.74-.5-1.26-.5-.34,0-.65,.08-.91,.22s-.47,.36-.62,.62-.22,.57-.22,.91l-.69-.38c0-.59,.13-1.11,.38-1.56s.61-.81,1.06-1.07c.45-.26,.96-.39,1.53-.39s1.09,.15,1.54,.44c.45,.29,.8,.67,1.06,1.14,.26,.46,.38,.95,.38,1.45v4.82h-1.76Z"/><path class="cls-1" d="M77.05,20.22c-.77,0-1.46-.17-2.07-.52-.61-.35-1.1-.82-1.46-1.43s-.54-1.29-.54-2.05,.18-1.44,.53-2.04c.35-.6,.83-1.08,1.43-1.43,.6-.35,1.27-.53,2.01-.53s1.35,.17,1.9,.5c.55,.33,.98,.78,1.3,1.36,.31,.58,.47,1.23,.47,1.97,0,.13,0,.26-.02,.39-.02,.13-.04,.28-.07,.44h-6.3v-1.44h5.39l-.66,.58c-.02-.47-.11-.86-.27-1.18-.16-.32-.39-.56-.68-.74-.29-.17-.65-.26-1.08-.26-.45,0-.84,.1-1.17,.29-.33,.19-.59,.46-.77,.81s-.27,.76-.27,1.24,.1,.9,.29,1.26c.19,.36,.46,.64,.82,.84,.35,.2,.76,.3,1.22,.3,.39,0,.76-.07,1.1-.21s.62-.34,.86-.61l1.12,1.14c-.37,.44-.83,.77-1.36,.99-.53,.22-1.1,.34-1.7,.34Z"/><path class="cls-1" d="M82.02,20.06v-7.68h1.76v7.68h-1.76Zm1.76-4.27l-.61-.3c0-.97,.22-1.76,.65-2.36,.43-.6,1.09-.9,1.96-.9,.38,0,.73,.07,1.04,.21s.6,.36,.86,.67l-1.15,1.18c-.14-.15-.29-.26-.46-.32-.17-.06-.37-.1-.59-.1-.49,0-.9,.16-1.22,.46-.32,.31-.48,.79-.48,1.46Z"/><path class="cls-1" d="M91.53,20.22c-.69,0-1.32-.18-1.88-.53-.56-.35-1-.83-1.33-1.43s-.49-1.28-.49-2.02,.16-1.44,.49-2.04,.77-1.08,1.33-1.44c.56-.36,1.19-.54,1.88-.54,.59,0,1.11,.12,1.56,.38s.81,.59,1.08,1.03,.4,.93,.4,1.49v2.21c0,.55-.13,1.05-.39,1.49-.26,.44-.62,.78-1.08,1.03-.46,.25-.98,.38-1.57,.38Zm.29-1.66c.65,0,1.18-.22,1.58-.66,.4-.44,.6-1,.6-1.68,0-.46-.09-.86-.27-1.22-.18-.35-.43-.63-.76-.82s-.71-.3-1.14-.3-.8,.1-1.13,.3c-.33,.2-.58,.47-.77,.82-.19,.35-.28,.76-.28,1.22s.09,.86,.28,1.22,.44,.63,.77,.82c.33,.2,.7,.3,1.13,.3Zm2.06,1.5v-2.06l.3-1.87-.3-1.86v-1.89h1.76v7.68h-1.76Z"/><path class="cls-1" d="M96.92,13.98v-1.6h5.44v1.6h-5.44Zm1.84,6.08V9.18h1.76v10.88h-1.76Z"/><path class="cls-1" d="M106.98,20.22c-.77,0-1.46-.17-2.07-.52-.61-.35-1.1-.82-1.46-1.43s-.54-1.29-.54-2.05,.18-1.44,.53-2.04c.35-.6,.83-1.08,1.43-1.43,.6-.35,1.27-.53,2.01-.53s1.35,.17,1.9,.5c.55,.33,.98,.78,1.3,1.36,.31,.58,.47,1.23,.47,1.97,0,.13,0,.26-.02,.39-.02,.13-.04,.28-.07,.44h-6.3v-1.44h5.39l-.66,.58c-.02-.47-.11-.86-.27-1.18-.16-.32-.39-.56-.68-.74-.29-.17-.65-.26-1.08-.26-.45,0-.84,.1-1.17,.29-.33,.19-.59,.46-.77,.81s-.27,.76-.27,1.24,.1,.9,.29,1.26c.19,.36,.46,.64,.82,.84,.35,.2,.76,.3,1.22,.3,.39,0,.76-.07,1.1-.21s.62-.34,.86-.61l1.12,1.14c-.37,.44-.83,.77-1.36,.99-.53,.22-1.1,.34-1.7,.34Z"/><path class="cls-1" d="M115.4,20.06V8.86h1.84v11.2h-1.84Zm1.26-4.22v-1.6h2.8c.38,0,.72-.08,1.02-.23,.29-.16,.53-.37,.7-.66s.26-.62,.26-1-.08-.72-.26-1-.4-.5-.7-.66c-.29-.15-.63-.23-1.02-.23h-2.8v-1.6h2.9c.7,0,1.34,.14,1.9,.43,.56,.29,1,.69,1.33,1.22,.33,.52,.49,1.14,.49,1.84s-.16,1.32-.49,1.84c-.33,.52-.77,.93-1.33,1.22-.56,.29-1.19,.43-1.9,.43h-2.9Z"/><path class="cls-1" d="M124.93,20.06V8.86h1.84v11.2h-1.84Zm1.26-4.75v-1.52h2.83c.57,0,1.01-.15,1.32-.44s.47-.7,.47-1.22c0-.47-.15-.86-.46-1.18s-.75-.48-1.31-.48h-2.85v-1.6h2.93c.7,0,1.32,.14,1.86,.42,.53,.28,.95,.67,1.24,1.15,.29,.49,.44,1.04,.44,1.66,0,.65-.15,1.22-.44,1.7-.29,.48-.71,.85-1.24,1.12-.53,.27-1.15,.4-1.86,.4h-2.93Zm4.88,4.75l-3.92-4.86,1.71-.62,4.53,5.49h-2.32Z"/></g><g><g><path class="cls-1" d="M32.17,5.78c.51-.51,1.55-.3,2.32,.47h0c.77,.77,.98,1.81,.47,2.32"/><rect class="cls-1" x="22.29" y="10.14" width="12.68" height="3.94" transform="translate(-.18 23.79) rotate(-45)"/><polygon class="cls-1" points="22.3 15.65 20.91 19.82 25.08 18.43 22.3 15.65"/></g><path class="cls-3" d="M27.12,6.33h-9.93c-.53,0-.95,.43-.95,.95V23.55c0,.53,.43,.95,.95,.95h16.26c.53,0,.95-.43,.95-.95V13.61"/></g></g></g></svg>