<?xml version="1.0" encoding="UTF-8"?><svg id="Layer_2" xmlns="http://www.w3.org/2000/svg" viewBox="0 0 250 30"><defs><style>.cls-1{fill:#fff;}.cls-2{fill:red;opacity:.8;}.cls-3{fill:none;stroke:#fff;stroke-miterlimit:10;stroke-width:1.5px;}</style></defs><g id="PR_Log"><rect class="cls-2" width="250" height="30" rx="2" ry="2"/><g><g><path class="cls-1" d="M40.93,20.21c-.72,0-1.4-.14-2.04-.42-.64-.28-1.2-.67-1.68-1.16-.48-.5-.86-1.07-1.13-1.72-.28-.66-.41-1.36-.41-2.11s.14-1.45,.41-2.1c.27-.65,.65-1.22,1.14-1.72,.49-.5,1.06-.88,1.71-1.16,.66-.28,1.36-.41,2.12-.41,.83,0,1.6,.16,2.31,.48s1.31,.78,1.79,1.37l-1.17,1.17c-.31-.44-.73-.78-1.25-1.01s-1.08-.35-1.68-.35c-.72,0-1.35,.16-1.9,.47-.55,.31-.97,.75-1.27,1.31-.3,.56-.45,1.21-.45,1.95s.15,1.39,.46,1.96c.31,.57,.72,1.01,1.24,1.33,.52,.32,1.11,.48,1.77,.48,.7,0,1.3-.13,1.81-.38s.89-.63,1.16-1.14c.27-.5,.41-1.13,.41-1.87l1.08,.78h-4.49v-1.57h5.19v.24c0,1.25-.22,2.29-.67,3.12-.44,.83-1.05,1.45-1.82,1.86-.77,.41-1.65,.62-2.64,.62Z"/><path class="cls-1" d="M50.89,20.21c-.72,0-1.37-.16-1.94-.49-.58-.32-1.03-.77-1.36-1.34-.34-.57-.5-1.21-.5-1.92s.17-1.35,.5-1.91c.33-.56,.78-1.01,1.34-1.34,.56-.33,1.19-.49,1.88-.49s1.26,.15,1.78,.46c.52,.31,.92,.73,1.22,1.27,.29,.54,.44,1.16,.44,1.85,0,.12,0,.24-.02,.37-.02,.12-.04,.26-.07,.41h-5.91v-1.35h5.05l-.62,.54c-.02-.44-.1-.81-.25-1.11-.15-.3-.36-.53-.64-.69-.27-.16-.61-.24-1.01-.24-.42,0-.79,.09-1.1,.27-.31,.18-.55,.43-.72,.76s-.25,.71-.25,1.16,.09,.84,.27,1.18c.18,.34,.44,.6,.77,.79,.33,.19,.71,.28,1.14,.28,.37,0,.71-.07,1.03-.2,.32-.13,.58-.32,.8-.57l1.05,1.07c-.35,.41-.77,.72-1.27,.93-.5,.21-1.03,.32-1.59,.32Z"/><path class="cls-1" d="M55.56,20.06v-7.2h1.65v7.2h-1.65Zm4.93,0v-4.16c0-.48-.15-.88-.46-1.18-.31-.31-.7-.46-1.18-.46-.32,0-.61,.07-.86,.21-.25,.14-.44,.33-.58,.58-.14,.25-.21,.54-.21,.85l-.64-.36c0-.55,.12-1.04,.36-1.46,.24-.42,.57-.76,1-1s.9-.37,1.43-.37,1.02,.14,1.44,.41,.75,.63,.99,1.07c.24,.43,.36,.89,.36,1.36v4.51h-1.65Z"/><path class="cls-1" d="M67.17,20.21c-.72,0-1.37-.16-1.94-.49-.58-.32-1.03-.77-1.37-1.34-.33-.57-.5-1.21-.5-1.92s.17-1.35,.49-1.91c.33-.56,.78-1.01,1.34-1.34,.57-.33,1.19-.49,1.88-.49s1.26,.15,1.78,.46c.51,.31,.92,.73,1.21,1.27s.44,1.16,.44,1.85c0,.12,0,.24-.02,.37-.01,.12-.04,.26-.07,.41h-5.91v-1.35h5.06l-.62,.54c-.02-.44-.11-.81-.25-1.11-.15-.3-.36-.53-.64-.69-.28-.16-.61-.24-1.01-.24s-.79,.09-1.09,.27c-.31,.18-.55,.43-.72,.76-.17,.33-.26,.71-.26,1.16s.09,.84,.27,1.18,.43,.6,.76,.79c.33,.19,.71,.28,1.14,.28,.37,0,.71-.07,1.03-.2,.31-.13,.58-.32,.8-.57l1.05,1.07c-.35,.41-.78,.72-1.28,.93s-1.03,.32-1.59,.32Z"/><path class="cls-1" d="M71.83,20.06v-7.2h1.65v7.2h-1.65Zm1.65-4l-.57-.29c0-.91,.2-1.65,.61-2.21,.41-.56,1.02-.85,1.84-.85,.36,0,.68,.06,.97,.19s.56,.34,.81,.63l-1.08,1.11c-.13-.14-.28-.24-.44-.3-.16-.06-.34-.09-.55-.09-.46,0-.84,.14-1.14,.43-.3,.29-.45,.75-.45,1.37Z"/><path class="cls-1" d="M80.74,20.21c-.65,0-1.24-.17-1.76-.5-.53-.33-.94-.78-1.25-1.34-.31-.56-.46-1.2-.46-1.9s.15-1.35,.46-1.91c.3-.57,.72-1.02,1.25-1.35,.52-.33,1.11-.5,1.76-.5,.55,0,1.04,.12,1.46,.35,.42,.23,.76,.56,1.01,.97,.25,.41,.38,.88,.38,1.4v2.07c0,.52-.12,.99-.37,1.4-.25,.41-.58,.73-1.01,.97-.43,.23-.92,.35-1.47,.35Zm.27-1.56c.61,0,1.1-.21,1.48-.62,.38-.41,.56-.93,.56-1.57,0-.43-.08-.81-.25-1.14s-.41-.59-.71-.77c-.3-.18-.66-.28-1.07-.28s-.75,.09-1.06,.28c-.3,.19-.54,.44-.72,.77s-.26,.71-.26,1.14,.09,.81,.26,1.14,.42,.59,.72,.77c.3,.19,.66,.28,1.06,.28Zm1.93,1.41v-1.93l.29-1.76-.29-1.74v-1.77h1.65v7.2h-1.65Z"/><path class="cls-1" d="M85.8,14.36v-1.5h5.1v1.5h-5.1Zm1.72,5.7V9.86h1.65v10.2h-1.65Z"/><path class="cls-1" d="M95.23,20.21c-.72,0-1.37-.16-1.94-.49-.58-.32-1.03-.77-1.36-1.34-.34-.57-.5-1.21-.5-1.92s.17-1.35,.5-1.91c.33-.56,.78-1.01,1.34-1.34,.56-.33,1.19-.49,1.88-.49s1.26,.15,1.78,.46c.52,.31,.92,.73,1.22,1.27,.29,.54,.44,1.16,.44,1.85,0,.12,0,.24-.02,.37-.02,.12-.04,.26-.07,.41h-5.91v-1.35h5.05l-.62,.54c-.02-.44-.1-.81-.25-1.11-.15-.3-.36-.53-.64-.69-.27-.16-.61-.24-1.01-.24-.42,0-.79,.09-1.1,.27-.31,.18-.55,.43-.72,.76s-.25,.71-.25,1.16,.09,.84,.27,1.18c.18,.34,.44,.6,.77,.79,.33,.19,.71,.28,1.14,.28,.37,0,.71-.07,1.03-.2,.32-.13,.58-.32,.8-.57l1.05,1.07c-.35,.41-.77,.72-1.27,.93-.5,.21-1.03,.32-1.59,.32Z"/><path class="cls-1" d="M103.12,20.06V9.56h1.72v10.5h-1.72Zm1.18-3.96v-1.5h2.62c.36,0,.68-.07,.95-.22,.28-.14,.49-.35,.65-.62,.16-.26,.24-.58,.24-.94s-.08-.67-.24-.94c-.16-.26-.38-.47-.65-.61-.27-.15-.59-.22-.95-.22h-2.62v-1.5h2.71c.66,0,1.25,.13,1.78,.41,.53,.27,.94,.65,1.25,1.14s.46,1.07,.46,1.72-.15,1.24-.46,1.73-.72,.87-1.25,1.14c-.52,.27-1.12,.41-1.78,.41h-2.71Z"/><path class="cls-1" d="M114.91,20.21c-.61,0-1.15-.14-1.63-.41-.48-.27-.85-.64-1.11-1.12-.27-.48-.4-1.02-.4-1.64v-4.19h1.65v4.11c0,.35,.06,.65,.17,.89s.29,.43,.51,.56c.23,.13,.49,.19,.8,.19,.48,0,.85-.14,1.1-.43s.38-.69,.38-1.22v-4.11h1.65v4.19c0,.63-.13,1.18-.4,1.66-.26,.47-.63,.84-1.1,1.11-.47,.26-1.01,.4-1.63,.4Z"/><path class="cls-1" d="M119.71,20.06v-7.2h1.65v7.2h-1.65Zm1.65-4l-.57-.29c0-.91,.2-1.65,.61-2.21,.4-.56,1.02-.85,1.84-.85,.36,0,.69,.06,.98,.19s.56,.34,.81,.63l-1.08,1.11c-.13-.14-.28-.24-.43-.3-.16-.06-.34-.09-.56-.09-.46,0-.84,.14-1.14,.43s-.45,.75-.45,1.37Z"/><path class="cls-1" d="M128.92,20.21c-.71,0-1.35-.17-1.93-.5-.58-.33-1.03-.78-1.36-1.35-.33-.57-.49-1.21-.49-1.9s.17-1.35,.49-1.91c.33-.56,.78-1.01,1.36-1.34,.57-.33,1.22-.49,1.93-.49,.56,0,1.08,.11,1.57,.32,.49,.21,.9,.52,1.24,.92l-1.08,1.1c-.21-.25-.46-.44-.76-.56s-.62-.19-.97-.19c-.41,0-.77,.09-1.09,.28-.32,.19-.56,.44-.74,.76-.17,.32-.26,.69-.26,1.12s.09,.79,.26,1.12,.42,.58,.74,.76c.31,.19,.68,.28,1.09,.28,.35,0,.67-.06,.97-.19,.29-.12,.55-.31,.76-.56l1.08,1.1c-.34,.4-.75,.71-1.24,.92-.48,.21-1.01,.32-1.57,.32Z"/><path class="cls-1" d="M132.91,20.06V9.26h1.65v10.8h-1.65Zm4.94,0v-4.16c0-.48-.15-.88-.46-1.18s-.7-.46-1.18-.46c-.32,0-.6,.07-.85,.21-.25,.14-.45,.33-.58,.58-.14,.25-.21,.54-.21,.85l-.65-.36c0-.55,.12-1.04,.36-1.46s.57-.76,1-1c.43-.25,.9-.37,1.43-.37s1.02,.12,1.44,.36,.75,.57,.99,1c.24,.42,.36,.92,.36,1.48v4.51h-1.65Z"/><path class="cls-1" d="M144.19,20.21c-.65,0-1.24-.17-1.76-.5-.52-.33-.94-.78-1.25-1.34-.3-.56-.46-1.2-.46-1.9s.15-1.35,.46-1.91c.31-.57,.72-1.02,1.25-1.35,.53-.33,1.11-.5,1.76-.5,.55,0,1.04,.12,1.46,.35,.42,.23,.76,.56,1.01,.97,.25,.41,.38,.88,.38,1.4v2.07c0,.52-.12,.99-.37,1.4s-.58,.73-1.01,.97c-.43,.23-.92,.35-1.47,.35Zm.27-1.56c.61,0,1.1-.21,1.48-.62,.38-.41,.56-.93,.56-1.57,0-.43-.09-.81-.26-1.14s-.41-.59-.71-.77c-.31-.18-.66-.28-1.07-.28s-.75,.09-1.06,.28c-.31,.19-.55,.44-.72,.77s-.26,.71-.26,1.14,.09,.81,.26,1.14,.42,.59,.72,.77c.3,.19,.66,.28,1.06,.28Zm1.93,1.41v-1.93l.29-1.76-.29-1.74v-1.77h1.65v7.2h-1.65Z"/><path class="cls-1" d="M152.23,20.21c-.4,0-.79-.05-1.16-.16-.37-.1-.71-.25-1.02-.45-.31-.2-.58-.43-.81-.71l1.05-1.05c.25,.29,.54,.51,.86,.65,.33,.14,.69,.22,1.1,.22,.37,0,.65-.06,.84-.17,.19-.11,.28-.27,.28-.48s-.09-.39-.27-.51-.41-.22-.7-.31-.58-.17-.9-.26c-.31-.09-.62-.21-.9-.37-.29-.16-.52-.37-.7-.64-.18-.27-.27-.62-.27-1.05,0-.46,.11-.86,.32-1.19,.21-.33,.52-.58,.92-.76,.39-.18,.87-.27,1.42-.27,.58,0,1.09,.1,1.54,.31,.44,.21,.82,.51,1.12,.92l-1.05,1.05c-.21-.26-.45-.46-.72-.58-.27-.13-.58-.19-.93-.19-.33,0-.58,.05-.76,.15-.18,.1-.27,.25-.27,.44,0,.2,.09,.35,.27,.46s.41,.21,.7,.29,.58,.17,.9,.26c.31,.1,.62,.23,.9,.39,.28,.17,.52,.38,.7,.66,.18,.27,.27,.63,.27,1.07,0,.7-.25,1.25-.73,1.67-.49,.41-1.16,.62-2,.62Z"/><path class="cls-1" d="M159.67,20.21c-.72,0-1.37-.16-1.94-.49-.58-.32-1.03-.77-1.37-1.34-.33-.57-.5-1.21-.5-1.92s.17-1.35,.49-1.91c.33-.56,.78-1.01,1.34-1.34,.57-.33,1.19-.49,1.88-.49s1.26,.15,1.78,.46c.51,.31,.92,.73,1.21,1.27s.44,1.16,.44,1.85c0,.12,0,.24-.02,.37-.01,.12-.04,.26-.07,.41h-5.91v-1.35h5.06l-.62,.54c-.02-.44-.11-.81-.25-1.11-.15-.3-.36-.53-.64-.69-.28-.16-.61-.24-1.01-.24s-.79,.09-1.09,.27c-.31,.18-.55,.43-.72,.76-.17,.33-.26,.71-.26,1.16s.09,.84,.27,1.18,.43,.6,.76,.79c.33,.19,.71,.28,1.14,.28,.37,0,.71-.07,1.03-.2,.31-.13,.58-.32,.8-.57l1.05,1.07c-.35,.41-.78,.72-1.28,.93s-1.03,.32-1.59,.32Z"/><path class="cls-1" d="M172.39,20.21c-.75,0-1.45-.14-2.1-.42-.65-.28-1.22-.67-1.71-1.16-.49-.5-.87-1.07-1.15-1.72-.28-.66-.41-1.36-.41-2.11s.14-1.45,.41-2.1c.27-.65,.65-1.22,1.14-1.72,.48-.5,1.05-.88,1.7-1.16,.64-.28,1.34-.41,2.09-.41s1.45,.14,2.09,.41c.65,.28,1.21,.66,1.7,1.16,.49,.49,.87,1.07,1.15,1.72,.28,.66,.41,1.36,.41,2.11s-.14,1.45-.41,2.11c-.27,.66-.65,1.23-1.14,1.72s-1.05,.88-1.7,1.16c-.64,.28-1.34,.42-2.08,.42Zm-.03-1.65c.71,0,1.33-.16,1.87-.48,.53-.32,.95-.76,1.26-1.33,.3-.56,.46-1.22,.46-1.96,0-.55-.09-1.05-.26-1.51-.18-.46-.42-.85-.74-1.18s-.7-.59-1.13-.77c-.44-.18-.92-.27-1.45-.27-.7,0-1.32,.16-1.85,.47-.54,.31-.96,.75-1.26,1.31-.3,.56-.46,1.21-.46,1.95,0,.55,.09,1.06,.26,1.52s.42,.86,.74,1.19c.32,.33,.69,.59,1.13,.77,.44,.18,.92,.28,1.44,.28Z"/><path class="cls-1" d="M179.25,20.06v-7.2h1.65v7.2h-1.65Zm1.65-4l-.57-.29c0-.91,.2-1.65,.61-2.21,.4-.56,1.02-.85,1.84-.85,.36,0,.69,.06,.98,.19s.56,.34,.81,.63l-1.08,1.11c-.13-.14-.28-.24-.43-.3-.16-.06-.34-.09-.56-.09-.46,0-.84,.14-1.14,.43s-.45,.75-.45,1.37Z"/><path class="cls-1" d="M188.16,20.21c-.65,0-1.24-.17-1.76-.5-.53-.33-.94-.78-1.25-1.34-.3-.56-.46-1.2-.46-1.9s.15-1.35,.46-1.91c.31-.57,.72-1.02,1.25-1.35,.52-.33,1.11-.5,1.76-.5,.55,0,1.04,.12,1.46,.35,.42,.23,.76,.56,1.01,.97,.25,.41,.38,.88,.38,1.4v2.07c0,.52-.12,.99-.37,1.4s-.58,.73-1.01,.97c-.43,.23-.92,.35-1.47,.35Zm.27-1.56c.41,0,.77-.09,1.07-.28,.3-.18,.54-.44,.71-.77,.17-.33,.25-.71,.25-1.14s-.08-.81-.25-1.14c-.17-.33-.41-.59-.71-.77-.3-.18-.66-.28-1.06-.28s-.77,.09-1.07,.28c-.31,.19-.54,.44-.72,.77-.18,.33-.26,.71-.26,1.14s.09,.81,.26,1.14c.17,.33,.41,.59,.72,.77,.3,.19,.66,.28,1.06,.28Zm3.58,1.41h-1.65v-1.93l.29-1.76-.29-1.74v-5.37h1.65v10.8Z"/><path class="cls-1" d="M197.19,20.21c-.72,0-1.37-.16-1.94-.49-.58-.32-1.03-.77-1.37-1.34-.33-.57-.5-1.21-.5-1.92s.17-1.35,.5-1.91c.33-.56,.78-1.01,1.34-1.34,.57-.33,1.19-.49,1.88-.49s1.26,.15,1.78,.46c.52,.31,.92,.73,1.21,1.27s.44,1.16,.44,1.85c0,.12,0,.24-.02,.37-.01,.12-.04,.26-.07,.41h-5.91v-1.35h5.05l-.62,.54c-.02-.44-.1-.81-.25-1.11s-.36-.53-.64-.69-.61-.24-1.01-.24-.79,.09-1.09,.27c-.31,.18-.55,.43-.72,.76s-.25,.71-.25,1.16,.09,.84,.27,1.18,.44,.6,.77,.79c.33,.19,.71,.28,1.14,.28,.37,0,.71-.07,1.03-.2s.58-.32,.8-.57l1.05,1.07c-.35,.41-.78,.72-1.28,.93s-1.03,.32-1.59,.32Z"/><path class="cls-1" d="M201.85,20.06v-7.2h1.65v7.2h-1.65Zm1.65-4l-.57-.29c0-.91,.2-1.65,.61-2.21,.41-.56,1.02-.85,1.84-.85,.36,0,.68,.06,.97,.19s.56,.34,.81,.63l-1.08,1.11c-.13-.14-.27-.24-.43-.3-.16-.06-.34-.09-.55-.09-.46,0-.84,.14-1.14,.43-.3,.29-.45,.75-.45,1.37Z"/><path class="cls-1" d="M211.41,21.5V9.26h1.38v12.24h-1.38Zm.67-10.94v-1.3h2.87v1.3h-2.87Zm0,10.94v-1.31h2.87v1.31h-2.87Z"/><path class="cls-1" d="M216.57,20.06V9.56h1.73v10.5h-1.73Zm1.19-3.96v-1.5h2.62c.36,0,.68-.07,.95-.22,.28-.14,.49-.35,.65-.62,.16-.26,.24-.58,.24-.94s-.08-.67-.24-.94c-.16-.26-.38-.47-.65-.61-.28-.15-.59-.22-.95-.22h-2.62v-1.5h2.71c.66,0,1.25,.13,1.78,.41,.53,.27,.94,.65,1.25,1.14s.46,1.07,.46,1.72-.15,1.24-.46,1.73-.72,.87-1.25,1.14c-.52,.27-1.12,.41-1.78,.41h-2.71Z"/><path class="cls-1" d="M230.46,20.21c-.75,0-1.45-.14-2.1-.42-.65-.28-1.22-.67-1.71-1.16-.49-.5-.87-1.07-1.15-1.72-.28-.66-.41-1.36-.41-2.11s.14-1.45,.41-2.1c.27-.65,.65-1.22,1.14-1.72,.49-.5,1.05-.88,1.7-1.16,.64-.28,1.34-.41,2.09-.41s1.45,.14,2.09,.41c.65,.28,1.21,.66,1.7,1.16,.49,.49,.87,1.07,1.15,1.72,.27,.66,.41,1.36,.41,2.11s-.14,1.45-.41,2.11c-.28,.66-.66,1.23-1.14,1.72-.48,.49-1.05,.88-1.69,1.16-.65,.28-1.34,.42-2.08,.42Zm-.03-1.65c.71,0,1.33-.16,1.87-.48,.54-.32,.96-.76,1.26-1.33,.3-.56,.46-1.22,.46-1.96,0-.55-.09-1.05-.26-1.51s-.42-.85-.74-1.18c-.32-.33-.7-.59-1.13-.77-.44-.18-.92-.27-1.45-.27-.7,0-1.32,.16-1.85,.47-.54,.31-.96,.75-1.26,1.31-.3,.56-.46,1.21-.46,1.95,0,.55,.09,1.06,.26,1.52,.17,.46,.42,.86,.73,1.19,.32,.33,.69,.59,1.13,.77,.44,.18,.92,.28,1.44,.28Z"/><path class="cls-1" d="M236.7,10.56v-1.3h2.86v1.3h-2.86Zm0,10.94v-1.31h2.86v1.31h-2.86Zm2.16,0V9.26h1.38v12.24h-1.38Z"/></g><g><g><path class="cls-1" d="M24.61,5.78c.51-.51,1.55-.3,2.32,.47h0c.77,.77,.98,1.81,.47,2.32"/><rect class="cls-1" x="14.72" y="10.14" width="12.68" height="3.94" transform="translate(-2.39 18.44) rotate(-45)"/><polygon class="cls-1" points="14.73 15.65 13.35 19.82 17.52 18.43 14.73 15.65"/></g><path class="cls-3" d="M19.56,6.33H9.62c-.53,0-.95,.43-.95,.95V23.55c0,.53,.43,.95,.95,.95H25.89c.53,0,.95-.43,.95-.95V13.61"/></g></g></g></svg>