<?xml version="1.0" encoding="UTF-8"?>
<svg id="Layer_2" data-name="Layer 2" xmlns="http://www.w3.org/2000/svg" xmlns:xlink="http://www.w3.org/1999/xlink" viewBox="0 0 15.5 17.68">
  <defs>
    <style>
      .cls-1 {
        fill: #ff0096;
      }

      .cls-1, .cls-2 {
        fill-rule: evenodd;
      }

      .cls-2, .cls-3 {
        fill: #fff;
      }

      .cls-3 {
        clip-rule: evenodd;
      }

      .cls-4 {
        clip-path: url(#clippath);
      }
    </style>
    <clipPath id="clippath">
      <path class="cls-3" d="M7.98,3.4v1.18h-.45v-1.18c-1.08.04-2.09.33-2.97.83l.34.59-.13.08-.34-.59c-.94.56-1.73,1.35-2.29,2.28l.59.34-.08.13-.59-.34c-.5.88-.8,1.9-.83,2.97h1.23v.45h-1.23c.04,1.08.33,2.09.83,2.97l.59-.34.08.13-.59.34c.56.94,1.35,1.73,2.29,2.29l.34-.59.13.08-.34.59c.88.5,1.9.8,2.97.83v-1.18h.45v1.18c1.08-.04,2.09-.33,2.97-.83l-.34-.59.13-.08.34.59c.94-.56,1.73-1.35,2.29-2.29l-.59-.34.08-.13.59.34c.5-.88.8-1.9.83-2.97h-1.14v-.45h1.14c-.04-1.08-.33-2.09-.83-2.97l-.59.34-.08-.13.59-.34c-.56-.94-1.35-1.73-2.29-2.28l-.34.59-.13-.08.34-.59c-.88-.5-1.9-.8-2.97-.83h0Z"/>
    </clipPath>
  </defs>
  <g id="esr_entry" data-name="esr entry">
    <g>
      <path class="cls-1" d="M7.75,17.68c-1.42,0-2.81-.39-4.02-1.12l-.17-.1-.86.86c-.12.12-.29.19-.47.19s-.34-.07-.47-.19-.19-.29-.19-.47.07-.34.19-.47l.74-.74-.18-.18c-1.5-1.47-2.33-3.44-2.33-5.53C0,5.65,3.48,2.18,7.75,2.18s7.75,3.48,7.75,7.75c0,2.1-.83,4.06-2.33,5.53l-.18.18.74.74c.12.12.19.29.19.47s-.07.34-.19.47c-.12.12-.29.19-.46.19s-.34-.07-.47-.19l-.86-.86-.17.1c-1.21.73-2.6,1.12-4.02,1.12Z"/>
      <path class="cls-1" d="M7.75.79c-1.33,0-2.52.63-3.28,1.6,1.01-.42,2.12-.66,3.28-.66s2.27.23,3.28.66c-.76-.97-1.95-1.6-3.28-1.6h0Z"/>
      <path class="cls-1" d="M7.75,0c.41,0,.77.2,1,.5-.32-.07-.66-.11-1-.11s-.68.04-1,.11c.23-.3.59-.5,1-.5Z"/>
      <g>
        <path class="cls-2" d="M7.98,3.4v1.18h-.45v-1.18c-1.08.04-2.09.33-2.97.83l.34.59-.13.08-.34-.59c-.94.56-1.73,1.35-2.29,2.28l.59.34-.08.13-.59-.34c-.5.88-.8,1.9-.83,2.97h1.23v.45h-1.23c.04,1.08.33,2.09.83,2.97l.59-.34.08.13-.59.34c.56.94,1.35,1.73,2.29,2.29l.34-.59.13.08-.34.59c.88.5,1.9.8,2.97.83v-1.18h.45v1.18c1.08-.04,2.09-.33,2.97-.83l-.34-.59.13-.08.34.59c.94-.56,1.73-1.35,2.29-2.29l-.59-.34.08-.13.59.34c.5-.88.8-1.9.83-2.97h-1.14v-.45h1.14c-.04-1.08-.33-2.09-.83-2.97l-.59.34-.08-.13.59-.34c-.56-.94-1.35-1.73-2.29-2.28l-.34.59-.13-.08.34-.59c-.88-.5-1.9-.8-2.97-.83h0Z"/>
        <g class="cls-4">
          <path class="cls-2" d="M7.75,17.43c-1.38,0-2.72-.37-3.89-1.08l-.34-.21-1,1c-.08.08-.18.12-.29.12s-.21-.04-.29-.12c-.16-.16-.16-.42,0-.58l.92-.92-.36-.36c-1.45-1.42-2.25-3.32-2.25-5.36C.25,5.79,3.61,2.43,7.75,2.43s7.5,3.36,7.5,7.5c0,2.03-.8,3.93-2.25,5.36l-.36.36.92.92c.16.16.16.42,0,.58-.08.08-.18.12-.29.12s-.21-.04-.29-.12l-1-1-.34.21c-1.17.71-2.51,1.08-3.89,1.08Z"/>
        </g>
      </g>
      <path class="cls-1" d="M7.97,9.03c.14.05.27.13.38.23l4.04-2,.02.03-3.8,2.54s0,.04,0,.06c0,.5-.41.91-.91.91-.14,0-.28-.03-.4-.09l-2.28,3.95-.19-.11,2.29-3.96c-.2-.17-.33-.42-.33-.71,0-.41.27-.75.63-.87l.26-2.69h.03l.26,2.69h0Z"/>
    </g>
  </g>
</svg>