<?xml version="1.0" encoding="UTF-8"?><svg id="Layer_2" xmlns="http://www.w3.org/2000/svg" viewBox="0 0 14 14"><defs><style>.cls-1{fill:#fa0096;stroke-width:0px;}</style></defs><g id="Schedule_a_Demo"><path class="cls-1" d="M9.78.64c.43-.4,1-.63,1.6-.64,1.3,0,2.36,1.04,2.36,2.31,0,.6-.22,1.16-.62,1.59l-3.34-3.27Z"/><path class="cls-1" d="M.61,3.94C.22,3.52,0,2.97,0,2.39,0,1.11,1.04.06,2.34.05c.59,0,1.14.21,1.57.59L.61,3.94Z"/><path class="cls-1" d="M7.79,3.53c0-.31-.25-.56-.56-.56s-.56.25-.56.56v3.59l-2.12-1.04c-.39-.19-.86-.03-1.06.36-.19.39-.03.86.36,1.05l2.88,1.41c.11.05.23.08.35.08.29,0,.57-.16.71-.44.11-.22.1-.46,0-.67V3.53Z"/><path class="cls-1" d="M12.38,11.04c.67-1.03,1.06-2.25,1.05-3.56-.02-3.57-2.95-6.44-6.54-6.44h-.04C3.24,1.06.32,3.98.35,7.56c0,1.37.45,2.64,1.18,3.68l-1.35,1.36c-.18.18-.17.46,0,.63.09.09.2.13.32.13s.23-.04.32-.13l1.28-1.29c1.2,1.27,2.9,2.06,4.79,2.06.01,0,.03,0,.04,0,1.96-.01,3.71-.88,4.9-2.24l1.4,1.37c.09.09.2.13.32.13s.23-.04.32-.13c.18-.18.17-.46,0-.63l-1.49-1.45ZM6.92,12.88h-.03c-2.97,0-5.4-2.39-5.41-5.33,0-1.43.55-2.78,1.56-3.8,1.02-1.02,2.37-1.58,3.82-1.59h.03c2.97,0,5.4,2.39,5.41,5.33,0,1.43-.55,2.78-1.56,3.8-1.02,1.02-2.37,1.58-3.82,1.59Z"/></g></svg>