<?xml version="1.0" encoding="UTF-8"?><svg id="Layer_2" xmlns="http://www.w3.org/2000/svg" viewBox="0 0 12.5 12.5"><defs><style>.cls-1{fill:#00c800;}</style></defs><g id="Prod_Unit_conf_-_sadmin"><path class="cls-1" d="M9.26,7.9c.58-.01,1.16-.05,1.74-.18-.58-.14-1.16-.17-1.74-.18-.01-.58-.05-1.16-.18-1.74-.14.58-.17,1.16-.18,1.74-.58.01-1.16.05-1.74.18.58.14,1.16.17,1.74.18.01.58.05,1.16.18,1.74.14-.58.17-1.16.18-1.74Z"/><path class="cls-1" d="M6.29,8.06c-.08-.3-.16-.55-.27-.75-.1-.2-.23-.36-.38-.48s-.35-.2-.59-.23c.43-.1.76-.29.98-.57.22-.28.34-.62.34-1.02s-.09-.72-.27-.96-.42-.43-.72-.54c-.3-.12-.63-.17-1-.17h-2.39v6.32h.84v-2.68h1.48c.24,0,.43.05.58.14.14.1.26.23.34.42.09.18.16.4.22.66l.36,1.45h.86l-.41-1.58ZM4.28,6.26h-1.44v-2.23h1.46c.4,0,.7.1.91.3.21.2.31.47.31.83,0,.23-.06.43-.17.6-.11.17-.26.29-.45.38s-.4.13-.63.13Z"/><path class="cls-1" d="M11.75,12.5H.75c-.41,0-.75-.34-.75-.75V.75c0-.41.34-.75.75-.75h11c.41,0,.75.34.75.75v11c0,.41-.34.75-.75.75ZM.75.5c-.14,0-.25.11-.25.25v11c0,.14.11.25.25.25h11c.14,0,.25-.11.25-.25V.75c0-.14-.11-.25-.25-.25H.75Z"/></g></svg>